<svg width="927" height="736" viewBox="0 0 927 736" fill="none" xmlns="http://www.w3.org/2000/svg">
<rect width="927" height="736" fill="#E5E5E5"/>
<rect width="414" height="736" fill="#F4F5F5"/>
<path d="M0 226.109C0 226.109 109.5 307.356 205 226.109C300.5 144.863 414 226.109 414 226.109V736H0V226.109Z" fill="#25B5E3"/>
<path d="M295.672 210.312H300.57C307.65 210.312 313.28 203.788 311.745 196.456C310.628 191.117 305.652 187.453 300.195 187.453H276.078C272.47 187.453 269.547 184.53 269.547 180.922C269.547 177.313 272.47 174.391 276.078 174.391H287.132C292.586 174.391 297.566 170.727 298.683 165.387C300.218 158.056 294.588 151.531 287.508 151.531H214.051H209.133H130.758C124.471 151.531 119.328 156.675 119.328 162.961C119.328 169.247 124.471 174.391 130.758 174.391H135.656C139.265 174.391 142.188 177.313 142.188 180.922C142.188 184.53 139.265 187.453 135.656 187.453H118.071C112.617 187.453 107.637 191.117 106.52 196.456C104.986 203.788 110.615 210.312 117.695 210.312H161.781V249.5H118.071C112.617 249.5 107.637 253.164 106.52 258.503C104.986 265.835 110.615 272.359 117.695 272.359H119.328C122.937 272.359 125.859 275.282 125.859 278.891C125.859 282.499 122.937 285.422 119.328 285.422H117.695C110.615 285.422 104.986 291.947 106.52 299.278C107.637 304.617 112.617 308.281 118.071 308.281H135.656C139.265 308.281 142.188 311.204 142.188 314.812C142.188 318.421 139.265 321.344 135.656 321.344H131.133C125.68 321.344 120.7 325.008 119.583 330.347C118.048 337.678 123.678 344.203 130.758 344.203H204.215H209.133H284.242C290.528 344.203 295.672 339.06 295.672 332.773C295.672 326.487 290.528 321.344 284.242 321.344H282.609C279.001 321.344 276.078 318.421 276.078 314.812C276.078 311.204 279.001 308.281 282.609 308.281H296.929C302.383 308.281 307.363 304.617 308.48 299.278C310.014 291.947 304.385 285.422 297.305 285.422H256.484V246.234H296.929C302.383 246.234 307.363 242.57 308.48 237.231C310.014 229.9 304.385 223.375 297.305 223.375H295.672C292.063 223.375 289.141 220.452 289.141 216.844C289.141 213.235 292.063 210.312 295.672 210.312Z" fill="url(#paint0_radial_0_1)"/>
<path d="M289.141 246.234C289.141 291.316 252.582 327.875 207.5 327.875C162.418 327.875 125.859 291.316 125.859 246.234C125.859 201.152 162.418 164.594 207.5 164.594C252.582 164.594 289.141 201.152 289.141 246.234Z" fill="url(#paint1_linear_0_1)"/>
<path d="M195.574 208.908C191.42 204.807 184.641 207.925 184.641 213.934V236.438H126.467C126.081 239.651 125.859 242.917 125.859 246.234C125.859 249.552 126.081 252.818 126.467 256.031H184.641V278.535C184.641 284.547 191.42 287.662 195.574 283.56L228.296 251.26C231.048 248.543 231.048 243.926 228.296 241.209L195.574 208.908Z" fill="white"/>
<path d="M46.44 69.14H35.94L33.87 74H29.85L39.3 53H43.14L52.62 74H48.54L46.44 69.14ZM45.15 66.08L41.19 56.9L37.26 66.08H45.15ZM70.1477 57.98V74H66.5777V71.96C65.9777 72.68 65.2277 73.24 64.3277 73.64C63.4277 74.02 62.4577 74.21 61.4177 74.21C59.2777 74.21 57.5877 73.62 56.3477 72.44C55.1277 71.24 54.5177 69.47 54.5177 67.13V57.98H58.2677V66.62C58.2677 68.06 58.5877 69.14 59.2277 69.86C59.8877 70.56 60.8177 70.91 62.0177 70.91C63.3577 70.91 64.4177 70.5 65.1977 69.68C65.9977 68.84 66.3977 67.64 66.3977 66.08V57.98H70.1477ZM84.6877 73.13C84.2477 73.49 83.7077 73.76 83.0677 73.94C82.4477 74.12 81.7877 74.21 81.0877 74.21C79.3277 74.21 77.9677 73.75 77.0077 72.83C76.0477 71.91 75.5677 70.57 75.5677 68.81V61.1H72.9277V58.1H75.5677V54.44H79.3177V58.1H83.6077V61.1H79.3177V68.72C79.3177 69.5 79.5077 70.1 79.8877 70.52C80.2677 70.92 80.8177 71.12 81.5377 71.12C82.3777 71.12 83.0777 70.9 83.6377 70.46L84.6877 73.13ZM96.8625 57.8C98.8825 57.8 100.503 58.39 101.723 59.57C102.943 60.75 103.553 62.5 103.553 64.82V74H99.8025V65.3C99.8025 63.9 99.4725 62.85 98.8125 62.15C98.1525 61.43 97.2125 61.07 95.9925 61.07C94.6125 61.07 93.5225 61.49 92.7225 62.33C91.9225 63.15 91.5225 64.34 91.5225 65.9V74H87.7725V51.74H91.5225V59.84C92.1425 59.18 92.9025 58.68 93.8025 58.34C94.7225 57.98 95.7425 57.8 96.8625 57.8ZM123.516 66.08C123.516 66.34 123.496 66.71 123.456 67.19H110.886C111.106 68.37 111.676 69.31 112.596 70.01C113.536 70.69 114.696 71.03 116.076 71.03C117.836 71.03 119.286 70.45 120.426 69.29L122.436 71.6C121.716 72.46 120.806 73.11 119.706 73.55C118.606 73.99 117.366 74.21 115.986 74.21C114.226 74.21 112.676 73.86 111.336 73.16C109.996 72.46 108.956 71.49 108.216 70.25C107.496 68.99 107.136 67.57 107.136 65.99C107.136 64.43 107.486 63.03 108.186 61.79C108.906 60.53 109.896 59.55 111.156 58.85C112.416 58.15 113.836 57.8 115.416 57.8C116.976 57.8 118.366 58.15 119.586 58.85C120.826 59.53 121.786 60.5 122.466 61.76C123.166 63 123.516 64.44 123.516 66.08ZM115.416 60.8C114.216 60.8 113.196 61.16 112.356 61.88C111.536 62.58 111.036 63.52 110.856 64.7H119.946C119.786 63.54 119.296 62.6 118.476 61.88C117.656 61.16 116.636 60.8 115.416 60.8ZM136.208 57.8C138.228 57.8 139.848 58.39 141.068 59.57C142.288 60.75 142.898 62.5 142.898 64.82V74H139.148V65.3C139.148 63.9 138.818 62.85 138.158 62.15C137.498 61.43 136.558 61.07 135.338 61.07C133.958 61.07 132.868 61.49 132.068 62.33C131.268 63.15 130.868 64.34 130.868 65.9V74H127.118V57.98H130.688V60.05C131.308 59.31 132.088 58.75 133.028 58.37C133.968 57.99 135.028 57.8 136.208 57.8ZM157.285 73.13C156.845 73.49 156.305 73.76 155.665 73.94C155.045 74.12 154.385 74.21 153.685 74.21C151.925 74.21 150.565 73.75 149.605 72.83C148.645 71.91 148.165 70.57 148.165 68.81V61.1H145.525V58.1H148.165V54.44H151.915V58.1H156.205V61.1H151.915V68.72C151.915 69.5 152.105 70.1 152.485 70.52C152.865 70.92 153.415 71.12 154.135 71.12C154.975 71.12 155.675 70.9 156.235 70.46L157.285 73.13ZM160.37 57.98H164.12V74H160.37V57.98ZM162.26 55.34C161.58 55.34 161.01 55.13 160.55 54.71C160.09 54.27 159.86 53.73 159.86 53.09C159.86 52.45 160.09 51.92 160.55 51.5C161.01 51.06 161.58 50.84 162.26 50.84C162.94 50.84 163.51 51.05 163.97 51.47C164.43 51.87 164.66 52.38 164.66 53C164.66 53.66 164.43 54.22 163.97 54.68C163.53 55.12 162.96 55.34 162.26 55.34ZM176.392 74.21C174.732 74.21 173.242 73.86 171.922 73.16C170.602 72.46 169.572 71.49 168.832 70.25C168.092 68.99 167.722 67.57 167.722 65.99C167.722 64.41 168.092 63 168.832 61.76C169.572 60.52 170.592 59.55 171.892 58.85C173.212 58.15 174.712 57.8 176.392 57.8C177.972 57.8 179.352 58.12 180.532 58.76C181.732 59.4 182.632 60.32 183.232 61.52L180.352 63.2C179.892 62.46 179.312 61.91 178.612 61.55C177.932 61.17 177.182 60.98 176.362 60.98C174.962 60.98 173.802 61.44 172.882 62.36C171.962 63.26 171.502 64.47 171.502 65.99C171.502 67.51 171.952 68.73 172.852 69.65C173.772 70.55 174.942 71 176.362 71C177.182 71 177.932 70.82 178.612 70.46C179.312 70.08 179.892 69.52 180.352 68.78L183.232 70.46C182.612 71.66 181.702 72.59 180.502 73.25C179.322 73.89 177.952 74.21 176.392 74.21ZM192.594 57.8C194.954 57.8 196.754 58.37 197.994 59.51C199.254 60.63 199.884 62.33 199.884 64.61V74H196.344V72.05C195.884 72.75 195.224 73.29 194.364 73.67C193.524 74.03 192.504 74.21 191.304 74.21C190.104 74.21 189.054 74.01 188.154 73.61C187.254 73.19 186.554 72.62 186.054 71.9C185.574 71.16 185.334 70.33 185.334 69.41C185.334 67.97 185.864 66.82 186.924 65.96C188.004 65.08 189.694 64.64 191.994 64.64H196.134V64.4C196.134 63.28 195.794 62.42 195.114 61.82C194.454 61.22 193.464 60.92 192.144 60.92C191.244 60.92 190.354 61.06 189.474 61.34C188.614 61.62 187.884 62.01 187.284 62.51L185.814 59.78C186.654 59.14 187.664 58.65 188.844 58.31C190.024 57.97 191.274 57.8 192.594 57.8ZM192.084 71.48C193.024 71.48 193.854 71.27 194.574 70.85C195.314 70.41 195.834 69.79 196.134 68.99V67.13H192.264C190.104 67.13 189.024 67.84 189.024 69.26C189.024 69.94 189.294 70.48 189.834 70.88C190.374 71.28 191.124 71.48 192.084 71.48ZM214.326 73.13C213.886 73.49 213.346 73.76 212.706 73.94C212.086 74.12 211.426 74.21 210.726 74.21C208.966 74.21 207.606 73.75 206.646 72.83C205.686 71.91 205.206 70.57 205.206 68.81V61.1H202.566V58.1H205.206V54.44H208.956V58.1H213.246V61.1H208.956V68.72C208.956 69.5 209.146 70.1 209.526 70.52C209.906 70.92 210.456 71.12 211.176 71.12C212.016 71.12 212.716 70.9 213.276 70.46L214.326 73.13ZM217.411 57.98H221.161V74H217.411V57.98ZM219.301 55.34C218.621 55.34 218.051 55.13 217.591 54.71C217.131 54.27 216.901 53.73 216.901 53.09C216.901 52.45 217.131 51.92 217.591 51.5C218.051 51.06 218.621 50.84 219.301 50.84C219.981 50.84 220.551 51.05 221.011 51.47C221.471 51.87 221.701 52.38 221.701 53C221.701 53.66 221.471 54.22 221.011 54.68C220.571 55.12 220.001 55.34 219.301 55.34ZM233.283 74.21C231.663 74.21 230.203 73.86 228.903 73.16C227.603 72.46 226.583 71.49 225.843 70.25C225.123 68.99 224.763 67.57 224.763 65.99C224.763 64.41 225.123 63 225.843 61.76C226.583 60.52 227.603 59.55 228.903 58.85C230.203 58.15 231.663 57.8 233.283 57.8C234.923 57.8 236.393 58.15 237.693 58.85C238.993 59.55 240.003 60.52 240.723 61.76C241.463 63 241.833 64.41 241.833 65.99C241.833 67.57 241.463 68.99 240.723 70.25C240.003 71.49 238.993 72.46 237.693 73.16C236.393 73.86 234.923 74.21 233.283 74.21ZM233.283 71C234.663 71 235.803 70.54 236.703 69.62C237.603 68.7 238.053 67.49 238.053 65.99C238.053 64.49 237.603 63.28 236.703 62.36C235.803 61.44 234.663 60.98 233.283 60.98C231.903 60.98 230.763 61.44 229.863 62.36C228.983 63.28 228.543 64.49 228.543 65.99C228.543 67.49 228.983 68.7 229.863 69.62C230.763 70.54 231.903 71 233.283 71ZM254.509 57.8C256.529 57.8 258.149 58.39 259.369 59.57C260.589 60.75 261.199 62.5 261.199 64.82V74H257.449V65.3C257.449 63.9 257.119 62.85 256.459 62.15C255.799 61.43 254.859 61.07 253.639 61.07C252.259 61.07 251.169 61.49 250.369 62.33C249.569 63.15 249.169 64.34 249.169 65.9V74H245.419V57.98H248.989V60.05C249.609 59.31 250.389 58.75 251.329 58.37C252.269 57.99 253.329 57.8 254.509 57.8ZM288.227 69.14H277.727L275.657 74H271.637L281.087 53H284.927L294.407 74H290.327L288.227 69.14ZM286.937 66.08L282.977 56.9L279.047 66.08H286.937ZM305.598 57.8C307.158 57.8 308.548 58.14 309.768 58.82C311.008 59.5 311.978 60.46 312.678 61.7C313.378 62.94 313.728 64.37 313.728 65.99C313.728 67.61 313.378 69.05 312.678 70.31C311.978 71.55 311.008 72.51 309.768 73.19C308.548 73.87 307.158 74.21 305.598 74.21C303.438 74.21 301.728 73.49 300.468 72.05V79.82H296.718V57.98H300.288V60.08C300.908 59.32 301.668 58.75 302.568 58.37C303.488 57.99 304.498 57.8 305.598 57.8ZM305.178 71C306.558 71 307.688 70.54 308.568 69.62C309.468 68.7 309.918 67.49 309.918 65.99C309.918 64.49 309.468 63.28 308.568 62.36C307.688 61.44 306.558 60.98 305.178 60.98C304.278 60.98 303.468 61.19 302.748 61.61C302.028 62.01 301.458 62.59 301.038 63.35C300.618 64.11 300.408 64.99 300.408 65.99C300.408 66.99 300.618 67.87 301.038 68.63C301.458 69.39 302.028 69.98 302.748 70.4C303.468 70.8 304.278 71 305.178 71ZM326.164 57.8C327.724 57.8 329.114 58.14 330.334 58.82C331.574 59.5 332.544 60.46 333.244 61.7C333.944 62.94 334.294 64.37 334.294 65.99C334.294 67.61 333.944 69.05 333.244 70.31C332.544 71.55 331.574 72.51 330.334 73.19C329.114 73.87 327.724 74.21 326.164 74.21C324.004 74.21 322.294 73.49 321.034 72.05V79.82H317.284V57.98H320.854V60.08C321.474 59.32 322.234 58.75 323.134 58.37C324.054 57.99 325.064 57.8 326.164 57.8ZM325.744 71C327.124 71 328.254 70.54 329.134 69.62C330.034 68.7 330.484 67.49 330.484 65.99C330.484 64.49 330.034 63.28 329.134 62.36C328.254 61.44 327.124 60.98 325.744 60.98C324.844 60.98 324.034 61.19 323.314 61.61C322.594 62.01 322.024 62.59 321.604 63.35C321.184 64.11 320.974 64.99 320.974 65.99C320.974 66.99 321.184 67.87 321.604 68.63C322.024 69.39 322.594 69.98 323.314 70.4C324.034 70.8 324.844 71 325.744 71Z" fill="black"/>
<rect x="38" y="455" width="339" height="223" rx="15" fill="#DFFAFF"/>
<path d="M75.504 492.8H77.584V502.24H83.44V504H75.504V492.8ZM88.652 504.112C87.788 504.112 87.0093 503.925 86.316 503.552C85.6227 503.179 85.0787 502.661 84.684 502C84.3 501.328 84.108 500.571 84.108 499.728C84.108 498.885 84.3 498.133 84.684 497.472C85.0787 496.811 85.6227 496.293 86.316 495.92C87.0093 495.547 87.788 495.36 88.652 495.36C89.5267 495.36 90.3107 495.547 91.004 495.92C91.6973 496.293 92.236 496.811 92.62 497.472C93.0147 498.133 93.212 498.885 93.212 499.728C93.212 500.571 93.0147 501.328 92.62 502C92.236 502.661 91.6973 503.179 91.004 503.552C90.3107 503.925 89.5267 504.112 88.652 504.112ZM88.652 502.4C89.388 502.4 89.996 502.155 90.476 501.664C90.956 501.173 91.196 500.528 91.196 499.728C91.196 498.928 90.956 498.283 90.476 497.792C89.996 497.301 89.388 497.056 88.652 497.056C87.916 497.056 87.308 497.301 86.828 497.792C86.3587 498.283 86.124 498.928 86.124 499.728C86.124 500.528 86.3587 501.173 86.828 501.664C87.308 502.155 87.916 502.4 88.652 502.4ZM103.605 495.456V502.704C103.605 505.712 102.069 507.216 98.9965 507.216C98.1752 507.216 97.3965 507.109 96.6605 506.896C95.9245 506.693 95.3165 506.395 94.8365 506L95.7325 504.496C96.1058 504.805 96.5752 505.051 97.1405 505.232C97.7165 505.424 98.2978 505.52 98.8845 505.52C99.8232 505.52 100.511 505.307 100.949 504.88C101.386 504.453 101.605 503.803 101.605 502.928V502.48C101.263 502.853 100.847 503.136 100.357 503.328C99.8658 503.52 99.3272 503.616 98.7405 503.616C97.9298 503.616 97.1938 503.445 96.5325 503.104C95.8818 502.752 95.3645 502.261 94.9805 501.632C94.6072 501.003 94.4205 500.283 94.4205 499.472C94.4205 498.661 94.6072 497.947 94.9805 497.328C95.3645 496.699 95.8818 496.213 96.5325 495.872C97.1938 495.531 97.9298 495.36 98.7405 495.36C99.3592 495.36 99.9192 495.461 100.421 495.664C100.933 495.867 101.359 496.176 101.701 496.592V495.456H103.605ZM99.0445 501.92C99.8018 501.92 100.421 501.696 100.901 501.248C101.391 500.789 101.637 500.197 101.637 499.472C101.637 498.757 101.391 498.176 100.901 497.728C100.421 497.28 99.8018 497.056 99.0445 497.056C98.2765 497.056 97.6472 497.28 97.1565 497.728C96.6765 498.176 96.4365 498.757 96.4365 499.472C96.4365 500.197 96.6765 500.789 97.1565 501.248C97.6472 501.696 98.2765 501.92 99.0445 501.92ZM106.234 495.456H108.234V504H106.234V495.456ZM107.242 494.048C106.879 494.048 106.575 493.936 106.33 493.712C106.085 493.477 105.962 493.189 105.962 492.848C105.962 492.507 106.085 492.224 106.33 492C106.575 491.765 106.879 491.648 107.242 491.648C107.605 491.648 107.909 491.76 108.154 491.984C108.399 492.197 108.522 492.469 108.522 492.8C108.522 493.152 108.399 493.451 108.154 493.696C107.919 493.931 107.615 494.048 107.242 494.048ZM115.707 495.36C116.784 495.36 117.648 495.675 118.299 496.304C118.95 496.933 119.275 497.867 119.275 499.104V504H117.275V499.36C117.275 498.613 117.099 498.053 116.747 497.68C116.395 497.296 115.894 497.104 115.243 497.104C114.507 497.104 113.926 497.328 113.499 497.776C113.072 498.213 112.859 498.848 112.859 499.68V504H110.859V495.456H112.763V496.56C113.094 496.165 113.51 495.867 114.011 495.664C114.512 495.461 115.078 495.36 115.707 495.36ZM142.794 492.8L139.082 504H136.874L134.106 495.712L131.29 504H129.066L125.354 492.8H127.514L130.298 501.312L133.194 492.8H135.114L137.946 501.36L140.81 492.8H142.794ZM144.375 495.456H146.375V504H144.375V495.456ZM145.383 494.048C145.02 494.048 144.716 493.936 144.471 493.712C144.225 493.477 144.103 493.189 144.103 492.848C144.103 492.507 144.225 492.224 144.471 492C144.716 491.765 145.02 491.648 145.383 491.648C145.745 491.648 146.049 491.76 146.295 491.984C146.54 492.197 146.663 492.469 146.663 492.8C146.663 493.152 146.54 493.451 146.295 493.696C146.06 493.931 145.756 494.048 145.383 494.048ZM154.136 503.536C153.901 503.728 153.613 503.872 153.272 503.968C152.941 504.064 152.589 504.112 152.216 504.112C151.277 504.112 150.552 503.867 150.039 503.376C149.528 502.885 149.272 502.171 149.272 501.232V497.12H147.864V495.52H149.272V493.568H151.272V495.52H153.56V497.12H151.272V501.184C151.272 501.6 151.373 501.92 151.576 502.144C151.778 502.357 152.072 502.464 152.456 502.464C152.904 502.464 153.277 502.347 153.576 502.112L154.136 503.536ZM160.629 495.36C161.706 495.36 162.57 495.675 163.221 496.304C163.871 496.933 164.197 497.867 164.197 499.104V504H162.197V499.36C162.197 498.613 162.021 498.053 161.669 497.68C161.317 497.296 160.815 497.104 160.165 497.104C159.429 497.104 158.847 497.328 158.421 497.776C157.994 498.213 157.781 498.848 157.781 499.68V504H155.781V492.128H157.781V496.448C158.111 496.096 158.517 495.829 158.997 495.648C159.487 495.456 160.031 495.36 160.629 495.36ZM171.796 498.016C171.433 498.016 171.124 497.893 170.868 497.648C170.612 497.392 170.484 497.072 170.484 496.688C170.484 496.293 170.606 495.973 170.852 495.728C171.108 495.483 171.422 495.36 171.796 495.36C172.169 495.36 172.478 495.483 172.724 495.728C172.98 495.973 173.108 496.293 173.108 496.688C173.108 497.072 172.98 497.392 172.724 497.648C172.468 497.893 172.158 498.016 171.796 498.016ZM171.796 504.112C171.433 504.112 171.124 503.989 170.868 503.744C170.612 503.488 170.484 503.168 170.484 502.784C170.484 502.389 170.606 502.069 170.852 501.824C171.108 501.579 171.422 501.456 171.796 501.456C172.169 501.456 172.478 501.579 172.724 501.824C172.98 502.069 173.108 502.389 173.108 502.784C173.108 503.168 172.98 503.488 172.724 503.744C172.468 503.989 172.158 504.112 171.796 504.112Z" fill="#1BA7DD"/>
<g filter="url(#filter0_d_0_1)">
<rect x="74" y="535" width="262" height="32" rx="5" fill="#35CAEC"/>
</g>
<g filter="url(#filter1_d_0_1)">
<rect x="74" y="600" width="262" height="32" rx="5" fill="#35CAEC"/>
</g>
<path d="M161.584 547.544V550.952H166.992V552.712H161.584V557H159.504V545.8H167.68V547.544H161.584ZM176.471 554.408H170.871L169.767 557H167.623L172.663 545.8H174.711L179.767 557H177.591L176.471 554.408ZM175.783 552.776L173.671 547.88L171.575 552.776H175.783ZM186.219 557.16C185.089 557.16 184.065 556.915 183.147 556.424C182.241 555.923 181.526 555.235 181.003 554.36C180.491 553.485 180.235 552.499 180.235 551.4C180.235 550.301 180.497 549.315 181.019 548.44C181.542 547.565 182.257 546.883 183.163 546.392C184.081 545.891 185.105 545.64 186.235 545.64C187.153 545.64 187.99 545.8 188.747 546.12C189.505 546.44 190.145 546.904 190.667 547.512L189.323 548.776C188.513 547.901 187.515 547.464 186.331 547.464C185.563 547.464 184.875 547.635 184.267 547.976C183.659 548.307 183.185 548.771 182.843 549.368C182.502 549.965 182.331 550.643 182.331 551.4C182.331 552.157 182.502 552.835 182.843 553.432C183.185 554.029 183.659 554.499 184.267 554.84C184.875 555.171 185.563 555.336 186.331 555.336C187.515 555.336 188.513 554.893 189.323 554.008L190.667 555.288C190.145 555.896 189.499 556.36 188.731 556.68C187.974 557 187.137 557.16 186.219 557.16ZM201.06 555.256V557H192.66V545.8H200.836V547.544H194.74V550.456H200.148V552.168H194.74V555.256H201.06ZM211.315 551.176C211.934 551.379 212.424 551.72 212.787 552.2C213.15 552.669 213.331 553.256 213.331 553.96C213.331 554.931 212.958 555.683 212.211 556.216C211.464 556.739 210.376 557 208.947 557H203.379V545.8H208.627C209.95 545.8 210.968 546.061 211.683 546.584C212.398 547.096 212.755 547.805 212.755 548.712C212.755 549.267 212.627 549.757 212.371 550.184C212.115 550.611 211.763 550.941 211.315 551.176ZM205.459 547.432V550.52H208.403C209.128 550.52 209.683 550.392 210.067 550.136C210.462 549.869 210.659 549.485 210.659 548.984C210.659 548.472 210.462 548.088 210.067 547.832C209.683 547.565 209.128 547.432 208.403 547.432H205.459ZM208.819 555.368C210.43 555.368 211.235 554.829 211.235 553.752C211.235 552.675 210.43 552.136 208.819 552.136H205.459V555.368H208.819ZM220.783 557.16C219.642 557.16 218.612 556.915 217.695 556.424C216.778 555.923 216.058 555.235 215.535 554.36C215.012 553.475 214.751 552.488 214.751 551.4C214.751 550.312 215.012 549.331 215.535 548.456C216.058 547.571 216.778 546.883 217.695 546.392C218.612 545.891 219.642 545.64 220.783 545.64C221.924 545.64 222.954 545.891 223.871 546.392C224.788 546.883 225.508 547.565 226.031 548.44C226.554 549.315 226.815 550.301 226.815 551.4C226.815 552.499 226.554 553.485 226.031 554.36C225.508 555.235 224.788 555.923 223.871 556.424C222.954 556.915 221.924 557.16 220.783 557.16ZM220.783 555.336C221.53 555.336 222.202 555.171 222.799 554.84C223.396 554.499 223.866 554.029 224.207 553.432C224.548 552.824 224.719 552.147 224.719 551.4C224.719 550.653 224.548 549.981 224.207 549.384C223.866 548.776 223.396 548.307 222.799 547.976C222.202 547.635 221.53 547.464 220.783 547.464C220.036 547.464 219.364 547.635 218.767 547.976C218.17 548.307 217.7 548.776 217.359 549.384C217.018 549.981 216.847 550.653 216.847 551.4C216.847 552.147 217.018 552.824 217.359 553.432C217.7 554.029 218.17 554.499 218.767 554.84C219.364 555.171 220.036 555.336 220.783 555.336ZM234.252 557.16C233.11 557.16 232.081 556.915 231.164 556.424C230.246 555.923 229.526 555.235 229.004 554.36C228.481 553.475 228.22 552.488 228.22 551.4C228.22 550.312 228.481 549.331 229.004 548.456C229.526 547.571 230.246 546.883 231.164 546.392C232.081 545.891 233.11 545.64 234.252 545.64C235.393 545.64 236.422 545.891 237.34 546.392C238.257 546.883 238.977 547.565 239.5 548.44C240.022 549.315 240.284 550.301 240.284 551.4C240.284 552.499 240.022 553.485 239.5 554.36C238.977 555.235 238.257 555.923 237.34 556.424C236.422 556.915 235.393 557.16 234.252 557.16ZM234.252 555.336C234.998 555.336 235.67 555.171 236.268 554.84C236.865 554.499 237.334 554.029 237.676 553.432C238.017 552.824 238.188 552.147 238.188 551.4C238.188 550.653 238.017 549.981 237.676 549.384C237.334 548.776 236.865 548.307 236.268 547.976C235.67 547.635 234.998 547.464 234.252 547.464C233.505 547.464 232.833 547.635 232.236 547.976C231.638 548.307 231.169 548.776 230.828 549.384C230.486 549.981 230.316 550.653 230.316 551.4C230.316 552.147 230.486 552.824 230.828 553.432C231.169 554.029 231.638 554.499 232.236 554.84C232.833 555.171 233.505 555.336 234.252 555.336ZM246.344 552.312L244.568 554.136V557H242.488V545.8H244.568V551.544L250.104 545.8H252.44L247.736 550.808L252.728 557H250.296L246.344 552.312Z" fill="white"/>
<path d="M165.504 610.8H167.584V620.24H173.44V622H165.504V610.8ZM175.082 610.8H177.162V622H175.082V610.8ZM190.144 610.8V622H188.432L182.256 614.416V622H180.192V610.8H181.904L188.08 618.384V610.8H190.144ZM197.001 617.312L195.225 619.136V622H193.145V610.8H195.225V616.544L200.761 610.8H203.097L198.393 615.808L203.385 622H200.953L197.001 617.312ZM213.201 620.256V622H204.801V610.8H212.977V612.544H206.881V615.456H212.289V617.168H206.881V620.256H213.201ZM215.52 610.8H220.416C221.61 610.8 222.672 611.035 223.6 611.504C224.528 611.963 225.248 612.619 225.76 613.472C226.272 614.315 226.528 615.291 226.528 616.4C226.528 617.509 226.272 618.491 225.76 619.344C225.248 620.187 224.528 620.843 223.6 621.312C222.672 621.771 221.61 622 220.416 622H215.52V610.8ZM220.32 620.24C221.141 620.24 221.861 620.085 222.48 619.776C223.109 619.456 223.589 619.008 223.92 618.432C224.261 617.845 224.432 617.168 224.432 616.4C224.432 615.632 224.261 614.96 223.92 614.384C223.589 613.797 223.109 613.349 222.48 613.04C221.861 612.72 221.141 612.56 220.32 612.56H217.6V620.24H220.32ZM228.738 610.8H230.818V622H228.738V610.8ZM243.8 610.8V622H242.088L235.912 614.416V622H233.848V610.8H235.56L241.736 618.384V610.8H243.8Z" fill="white"/>
<rect width="414" height="736" transform="translate(513)" fill="#F4F5F5"/>
<path d="M513 226.109C513 226.109 622.5 307.356 718 226.109C813.5 144.863 927 226.109 927 226.109V736H513V226.109Z" fill="#25B5E3"/>
<path d="M559.44 69.14H548.94L546.87 74H542.85L552.3 53H556.14L565.62 74H561.54L559.44 69.14ZM558.15 66.08L554.19 56.9L550.26 66.08H558.15ZM583.148 57.98V74H579.578V71.96C578.978 72.68 578.228 73.24 577.328 73.64C576.428 74.02 575.458 74.21 574.418 74.21C572.278 74.21 570.588 73.62 569.348 72.44C568.128 71.24 567.518 69.47 567.518 67.13V57.98H571.268V66.62C571.268 68.06 571.588 69.14 572.228 69.86C572.888 70.56 573.818 70.91 575.018 70.91C576.358 70.91 577.418 70.5 578.198 69.68C578.998 68.84 579.398 67.64 579.398 66.08V57.98H583.148ZM597.688 73.13C597.248 73.49 596.708 73.76 596.068 73.94C595.448 74.12 594.788 74.21 594.088 74.21C592.328 74.21 590.968 73.75 590.008 72.83C589.048 71.91 588.568 70.57 588.568 68.81V61.1H585.928V58.1H588.568V54.44H592.318V58.1H596.608V61.1H592.318V68.72C592.318 69.5 592.508 70.1 592.888 70.52C593.268 70.92 593.818 71.12 594.538 71.12C595.378 71.12 596.078 70.9 596.638 70.46L597.688 73.13ZM609.863 57.8C611.883 57.8 613.503 58.39 614.723 59.57C615.943 60.75 616.553 62.5 616.553 64.82V74H612.803V65.3C612.803 63.9 612.473 62.85 611.813 62.15C611.153 61.43 610.213 61.07 608.993 61.07C607.613 61.07 606.523 61.49 605.723 62.33C604.923 63.15 604.523 64.34 604.523 65.9V74H600.773V51.74H604.523V59.84C605.143 59.18 605.903 58.68 606.803 58.34C607.723 57.98 608.743 57.8 609.863 57.8ZM636.516 66.08C636.516 66.34 636.496 66.71 636.456 67.19H623.886C624.106 68.37 624.676 69.31 625.596 70.01C626.536 70.69 627.696 71.03 629.076 71.03C630.836 71.03 632.286 70.45 633.426 69.29L635.436 71.6C634.716 72.46 633.806 73.11 632.706 73.55C631.606 73.99 630.366 74.21 628.986 74.21C627.226 74.21 625.676 73.86 624.336 73.16C622.996 72.46 621.956 71.49 621.216 70.25C620.496 68.99 620.136 67.57 620.136 65.99C620.136 64.43 620.486 63.03 621.186 61.79C621.906 60.53 622.896 59.55 624.156 58.85C625.416 58.15 626.836 57.8 628.416 57.8C629.976 57.8 631.366 58.15 632.586 58.85C633.826 59.53 634.786 60.5 635.466 61.76C636.166 63 636.516 64.44 636.516 66.08ZM628.416 60.8C627.216 60.8 626.196 61.16 625.356 61.88C624.536 62.58 624.036 63.52 623.856 64.7H632.946C632.786 63.54 632.296 62.6 631.476 61.88C630.656 61.16 629.636 60.8 628.416 60.8ZM649.208 57.8C651.228 57.8 652.848 58.39 654.068 59.57C655.288 60.75 655.898 62.5 655.898 64.82V74H652.148V65.3C652.148 63.9 651.818 62.85 651.158 62.15C650.498 61.43 649.558 61.07 648.338 61.07C646.958 61.07 645.868 61.49 645.068 62.33C644.268 63.15 643.868 64.34 643.868 65.9V74H640.118V57.98H643.688V60.05C644.308 59.31 645.088 58.75 646.028 58.37C646.968 57.99 648.028 57.8 649.208 57.8ZM670.285 73.13C669.845 73.49 669.305 73.76 668.665 73.94C668.045 74.12 667.385 74.21 666.685 74.21C664.925 74.21 663.565 73.75 662.605 72.83C661.645 71.91 661.165 70.57 661.165 68.81V61.1H658.525V58.1H661.165V54.44H664.915V58.1H669.205V61.1H664.915V68.72C664.915 69.5 665.105 70.1 665.485 70.52C665.865 70.92 666.415 71.12 667.135 71.12C667.975 71.12 668.675 70.9 669.235 70.46L670.285 73.13ZM673.37 57.98H677.12V74H673.37V57.98ZM675.26 55.34C674.58 55.34 674.01 55.13 673.55 54.71C673.09 54.27 672.86 53.73 672.86 53.09C672.86 52.45 673.09 51.92 673.55 51.5C674.01 51.06 674.58 50.84 675.26 50.84C675.94 50.84 676.51 51.05 676.97 51.47C677.43 51.87 677.66 52.38 677.66 53C677.66 53.66 677.43 54.22 676.97 54.68C676.53 55.12 675.96 55.34 675.26 55.34ZM689.392 74.21C687.732 74.21 686.242 73.86 684.922 73.16C683.602 72.46 682.572 71.49 681.832 70.25C681.092 68.99 680.722 67.57 680.722 65.99C680.722 64.41 681.092 63 681.832 61.76C682.572 60.52 683.592 59.55 684.892 58.85C686.212 58.15 687.712 57.8 689.392 57.8C690.972 57.8 692.352 58.12 693.532 58.76C694.732 59.4 695.632 60.32 696.232 61.52L693.352 63.2C692.892 62.46 692.312 61.91 691.612 61.55C690.932 61.17 690.182 60.98 689.362 60.98C687.962 60.98 686.802 61.44 685.882 62.36C684.962 63.26 684.502 64.47 684.502 65.99C684.502 67.51 684.952 68.73 685.852 69.65C686.772 70.55 687.942 71 689.362 71C690.182 71 690.932 70.82 691.612 70.46C692.312 70.08 692.892 69.52 693.352 68.78L696.232 70.46C695.612 71.66 694.702 72.59 693.502 73.25C692.322 73.89 690.952 74.21 689.392 74.21ZM705.594 57.8C707.954 57.8 709.754 58.37 710.994 59.51C712.254 60.63 712.884 62.33 712.884 64.61V74H709.344V72.05C708.884 72.75 708.224 73.29 707.364 73.67C706.524 74.03 705.504 74.21 704.304 74.21C703.104 74.21 702.054 74.01 701.154 73.61C700.254 73.19 699.554 72.62 699.054 71.9C698.574 71.16 698.334 70.33 698.334 69.41C698.334 67.97 698.864 66.82 699.924 65.96C701.004 65.08 702.694 64.64 704.994 64.64H709.134V64.4C709.134 63.28 708.794 62.42 708.114 61.82C707.454 61.22 706.464 60.92 705.144 60.92C704.244 60.92 703.354 61.06 702.474 61.34C701.614 61.62 700.884 62.01 700.284 62.51L698.814 59.78C699.654 59.14 700.664 58.65 701.844 58.31C703.024 57.97 704.274 57.8 705.594 57.8ZM705.084 71.48C706.024 71.48 706.854 71.27 707.574 70.85C708.314 70.41 708.834 69.79 709.134 68.99V67.13H705.264C703.104 67.13 702.024 67.84 702.024 69.26C702.024 69.94 702.294 70.48 702.834 70.88C703.374 71.28 704.124 71.48 705.084 71.48ZM727.326 73.13C726.886 73.49 726.346 73.76 725.706 73.94C725.086 74.12 724.426 74.21 723.726 74.21C721.966 74.21 720.606 73.75 719.646 72.83C718.686 71.91 718.206 70.57 718.206 68.81V61.1H715.566V58.1H718.206V54.44H721.956V58.1H726.246V61.1H721.956V68.72C721.956 69.5 722.146 70.1 722.526 70.52C722.906 70.92 723.456 71.12 724.176 71.12C725.016 71.12 725.716 70.9 726.276 70.46L727.326 73.13ZM730.411 57.98H734.161V74H730.411V57.98ZM732.301 55.34C731.621 55.34 731.051 55.13 730.591 54.71C730.131 54.27 729.901 53.73 729.901 53.09C729.901 52.45 730.131 51.92 730.591 51.5C731.051 51.06 731.621 50.84 732.301 50.84C732.981 50.84 733.551 51.05 734.011 51.47C734.471 51.87 734.701 52.38 734.701 53C734.701 53.66 734.471 54.22 734.011 54.68C733.571 55.12 733.001 55.34 732.301 55.34ZM746.283 74.21C744.663 74.21 743.203 73.86 741.903 73.16C740.603 72.46 739.583 71.49 738.843 70.25C738.123 68.99 737.763 67.57 737.763 65.99C737.763 64.41 738.123 63 738.843 61.76C739.583 60.52 740.603 59.55 741.903 58.85C743.203 58.15 744.663 57.8 746.283 57.8C747.923 57.8 749.393 58.15 750.693 58.85C751.993 59.55 753.003 60.52 753.723 61.76C754.463 63 754.833 64.41 754.833 65.99C754.833 67.57 754.463 68.99 753.723 70.25C753.003 71.49 751.993 72.46 750.693 73.16C749.393 73.86 747.923 74.21 746.283 74.21ZM746.283 71C747.663 71 748.803 70.54 749.703 69.62C750.603 68.7 751.053 67.49 751.053 65.99C751.053 64.49 750.603 63.28 749.703 62.36C748.803 61.44 747.663 60.98 746.283 60.98C744.903 60.98 743.763 61.44 742.863 62.36C741.983 63.28 741.543 64.49 741.543 65.99C741.543 67.49 741.983 68.7 742.863 69.62C743.763 70.54 744.903 71 746.283 71ZM767.509 57.8C769.529 57.8 771.149 58.39 772.369 59.57C773.589 60.75 774.199 62.5 774.199 64.82V74H770.449V65.3C770.449 63.9 770.119 62.85 769.459 62.15C768.799 61.43 767.859 61.07 766.639 61.07C765.259 61.07 764.169 61.49 763.369 62.33C762.569 63.15 762.169 64.34 762.169 65.9V74H758.419V57.98H761.989V60.05C762.609 59.31 763.389 58.75 764.329 58.37C765.269 57.99 766.329 57.8 767.509 57.8ZM801.227 69.14H790.727L788.657 74H784.637L794.087 53H797.927L807.407 74H803.327L801.227 69.14ZM799.937 66.08L795.977 56.9L792.047 66.08H799.937ZM818.598 57.8C820.158 57.8 821.548 58.14 822.768 58.82C824.008 59.5 824.978 60.46 825.678 61.7C826.378 62.94 826.728 64.37 826.728 65.99C826.728 67.61 826.378 69.05 825.678 70.31C824.978 71.55 824.008 72.51 822.768 73.19C821.548 73.87 820.158 74.21 818.598 74.21C816.438 74.21 814.728 73.49 813.468 72.05V79.82H809.718V57.98H813.288V60.08C813.908 59.32 814.668 58.75 815.568 58.37C816.488 57.99 817.498 57.8 818.598 57.8ZM818.178 71C819.558 71 820.688 70.54 821.568 69.62C822.468 68.7 822.918 67.49 822.918 65.99C822.918 64.49 822.468 63.28 821.568 62.36C820.688 61.44 819.558 60.98 818.178 60.98C817.278 60.98 816.468 61.19 815.748 61.61C815.028 62.01 814.458 62.59 814.038 63.35C813.618 64.11 813.408 64.99 813.408 65.99C813.408 66.99 813.618 67.87 814.038 68.63C814.458 69.39 815.028 69.98 815.748 70.4C816.468 70.8 817.278 71 818.178 71ZM839.164 57.8C840.724 57.8 842.114 58.14 843.334 58.82C844.574 59.5 845.544 60.46 846.244 61.7C846.944 62.94 847.294 64.37 847.294 65.99C847.294 67.61 846.944 69.05 846.244 70.31C845.544 71.55 844.574 72.51 843.334 73.19C842.114 73.87 840.724 74.21 839.164 74.21C837.004 74.21 835.294 73.49 834.034 72.05V79.82H830.284V57.98H833.854V60.08C834.474 59.32 835.234 58.75 836.134 58.37C837.054 57.99 838.064 57.8 839.164 57.8ZM838.744 71C840.124 71 841.254 70.54 842.134 69.62C843.034 68.7 843.484 67.49 843.484 65.99C843.484 64.49 843.034 63.28 842.134 62.36C841.254 61.44 840.124 60.98 838.744 60.98C837.844 60.98 837.034 61.19 836.314 61.61C835.594 62.01 835.024 62.59 834.604 63.35C834.184 64.11 833.974 64.99 833.974 65.99C833.974 66.99 834.184 67.87 834.604 68.63C835.024 69.39 835.594 69.98 836.314 70.4C837.034 70.8 837.844 71 838.744 71Z" fill="black"/>
<rect x="550" y="410" width="339" height="223" rx="15" fill="#DFFAFF"/>
<path d="M598.456 453.8V465H596.744L590.568 457.416V465H588.504V453.8H590.216L596.392 461.384V453.8H598.456ZM604.529 456.36C605.788 456.36 606.748 456.664 607.409 457.272C608.081 457.869 608.417 458.776 608.417 459.992V465H606.529V463.96C606.284 464.333 605.932 464.621 605.473 464.824C605.025 465.016 604.481 465.112 603.841 465.112C603.201 465.112 602.641 465.005 602.161 464.792C601.681 464.568 601.308 464.264 601.041 463.88C600.785 463.485 600.657 463.043 600.657 462.552C600.657 461.784 600.94 461.171 601.505 460.712C602.081 460.243 602.982 460.008 604.209 460.008H606.417V459.88C606.417 459.283 606.236 458.824 605.873 458.504C605.521 458.184 604.993 458.024 604.289 458.024C603.809 458.024 603.334 458.099 602.865 458.248C602.406 458.397 602.017 458.605 601.697 458.872L600.913 457.416C601.361 457.075 601.9 456.813 602.529 456.632C603.158 456.451 603.825 456.36 604.529 456.36ZM604.257 463.656C604.758 463.656 605.201 463.544 605.585 463.32C605.98 463.085 606.257 462.755 606.417 462.328V461.336H604.353C603.201 461.336 602.625 461.715 602.625 462.472C602.625 462.835 602.769 463.123 603.057 463.336C603.345 463.549 603.745 463.656 604.257 463.656ZM621.768 456.36C622.845 456.36 623.699 456.675 624.328 457.304C624.957 457.923 625.272 458.856 625.272 460.104V465H623.272V460.36C623.272 459.613 623.107 459.053 622.776 458.68C622.445 458.296 621.971 458.104 621.352 458.104C620.68 458.104 620.141 458.328 619.736 458.776C619.331 459.213 619.128 459.843 619.128 460.664V465H617.128V460.36C617.128 459.613 616.963 459.053 616.632 458.68C616.301 458.296 615.827 458.104 615.208 458.104C614.525 458.104 613.981 458.323 613.576 458.76C613.181 459.197 612.984 459.832 612.984 460.664V465H610.984V456.456H612.888V457.544C613.208 457.16 613.608 456.867 614.088 456.664C614.568 456.461 615.101 456.36 615.688 456.36C616.328 456.36 616.893 456.483 617.384 456.728C617.885 456.963 618.28 457.315 618.568 457.784C618.92 457.336 619.373 456.989 619.928 456.744C620.483 456.488 621.096 456.36 621.768 456.36ZM635.938 460.776C635.938 460.915 635.927 461.112 635.906 461.368H629.202C629.319 461.997 629.623 462.499 630.114 462.872C630.615 463.235 631.234 463.416 631.97 463.416C632.908 463.416 633.682 463.107 634.29 462.488L635.362 463.72C634.978 464.179 634.492 464.525 633.906 464.76C633.319 464.995 632.658 465.112 631.922 465.112C630.983 465.112 630.156 464.925 629.442 464.552C628.727 464.179 628.172 463.661 627.778 463C627.394 462.328 627.202 461.571 627.202 460.728C627.202 459.896 627.388 459.149 627.762 458.488C628.146 457.816 628.674 457.293 629.346 456.92C630.018 456.547 630.775 456.36 631.618 456.36C632.45 456.36 633.191 456.547 633.842 456.92C634.503 457.283 635.015 457.8 635.378 458.472C635.751 459.133 635.938 459.901 635.938 460.776ZM631.618 457.96C630.978 457.96 630.434 458.152 629.986 458.536C629.548 458.909 629.282 459.411 629.186 460.04H634.034C633.948 459.421 633.687 458.92 633.25 458.536C632.812 458.152 632.268 457.96 631.618 457.96ZM642.921 459.016C642.558 459.016 642.249 458.893 641.993 458.648C641.737 458.392 641.609 458.072 641.609 457.688C641.609 457.293 641.731 456.973 641.977 456.728C642.233 456.483 642.547 456.36 642.921 456.36C643.294 456.36 643.603 456.483 643.849 456.728C644.105 456.973 644.233 457.293 644.233 457.688C644.233 458.072 644.105 458.392 643.849 458.648C643.593 458.893 643.283 459.016 642.921 459.016ZM642.921 465.112C642.558 465.112 642.249 464.989 641.993 464.744C641.737 464.488 641.609 464.168 641.609 463.784C641.609 463.389 641.731 463.069 641.977 462.824C642.233 462.579 642.547 462.456 642.921 462.456C643.294 462.456 643.603 462.579 643.849 462.824C644.105 463.069 644.233 463.389 644.233 463.784C644.233 464.168 644.105 464.488 643.849 464.744C643.593 464.989 643.283 465.112 642.921 465.112Z" fill="#1BA7DD"/>
<path d="M599.904 537.256V539H591.504V527.8H599.68V529.544H593.584V532.456H598.992V534.168H593.584V537.256H599.904ZM612.815 530.36C613.892 530.36 614.745 530.675 615.375 531.304C616.004 531.923 616.319 532.856 616.319 534.104V539H614.319V534.36C614.319 533.613 614.153 533.053 613.823 532.68C613.492 532.296 613.017 532.104 612.399 532.104C611.727 532.104 611.188 532.328 610.783 532.776C610.377 533.213 610.175 533.843 610.175 534.664V539H608.175V534.36C608.175 533.613 608.009 533.053 607.679 532.68C607.348 532.296 606.873 532.104 606.255 532.104C605.572 532.104 605.028 532.323 604.623 532.76C604.228 533.197 604.031 533.832 604.031 534.664V539H602.031V530.456H603.935V531.544C604.255 531.16 604.655 530.867 605.135 530.664C605.615 530.461 606.148 530.36 606.735 530.36C607.375 530.36 607.94 530.483 608.431 530.728C608.932 530.963 609.327 531.315 609.615 531.784C609.967 531.336 610.42 530.989 610.975 530.744C611.529 530.488 612.143 530.36 612.815 530.36ZM622.139 530.36C623.397 530.36 624.357 530.664 625.019 531.272C625.691 531.869 626.027 532.776 626.027 533.992V539H624.139V537.96C623.893 538.333 623.541 538.621 623.083 538.824C622.635 539.016 622.091 539.112 621.451 539.112C620.811 539.112 620.251 539.005 619.771 538.792C619.291 538.568 618.917 538.264 618.651 537.88C618.395 537.485 618.267 537.043 618.267 536.552C618.267 535.784 618.549 535.171 619.115 534.712C619.691 534.243 620.592 534.008 621.819 534.008H624.027V533.88C624.027 533.283 623.845 532.824 623.483 532.504C623.131 532.184 622.603 532.024 621.899 532.024C621.419 532.024 620.944 532.099 620.475 532.248C620.016 532.397 619.627 532.605 619.307 532.872L618.523 531.416C618.971 531.075 619.509 530.813 620.139 530.632C620.768 530.451 621.435 530.36 622.139 530.36ZM621.867 537.656C622.368 537.656 622.811 537.544 623.195 537.32C623.589 537.085 623.867 536.755 624.027 536.328V535.336H621.963C620.811 535.336 620.235 535.715 620.235 536.472C620.235 536.835 620.379 537.123 620.667 537.336C620.955 537.549 621.355 537.656 621.867 537.656ZM628.593 530.456H630.593V539H628.593V530.456ZM629.601 529.048C629.239 529.048 628.935 528.936 628.689 528.712C628.444 528.477 628.321 528.189 628.321 527.848C628.321 527.507 628.444 527.224 628.689 527C628.935 526.765 629.239 526.648 629.601 526.648C629.964 526.648 630.268 526.76 630.513 526.984C630.759 527.197 630.881 527.469 630.881 527.8C630.881 528.152 630.759 528.451 630.513 528.696C630.279 528.931 629.975 529.048 629.601 529.048ZM633.218 527.128H635.218V539H633.218V527.128ZM642.905 533.016C642.542 533.016 642.233 532.893 641.977 532.648C641.721 532.392 641.593 532.072 641.593 531.688C641.593 531.293 641.716 530.973 641.961 530.728C642.217 530.483 642.532 530.36 642.905 530.36C643.278 530.36 643.588 530.483 643.833 530.728C644.089 530.973 644.217 531.293 644.217 531.688C644.217 532.072 644.089 532.392 643.833 532.648C643.577 532.893 643.268 533.016 642.905 533.016ZM642.905 539.112C642.542 539.112 642.233 538.989 641.977 538.744C641.721 538.488 641.593 538.168 641.593 537.784C641.593 537.389 641.716 537.069 641.961 536.824C642.217 536.579 642.532 536.456 642.905 536.456C643.278 536.456 643.588 536.579 643.833 536.824C644.089 537.069 644.217 537.389 644.217 537.784C644.217 538.168 644.089 538.488 643.833 538.744C643.577 538.989 643.268 539.112 642.905 539.112Z" fill="#1BA7DD"/>
<rect x="589" y="480" width="262" height="32" rx="5" fill="#35CAEC"/>
<rect x="589" y="666" width="262" height="42" rx="5" fill="#DFFAFF"/>
<path d="M672.826 678.6H676.39V691.096H684.112V694H672.826V678.6ZM693.304 694.264C691.705 694.264 690.26 693.919 688.97 693.23C687.694 692.541 686.689 691.595 685.956 690.392C685.237 689.175 684.878 687.811 684.878 686.3C684.878 684.789 685.237 683.433 685.956 682.23C686.689 681.013 687.694 680.059 688.97 679.37C690.26 678.681 691.705 678.336 693.304 678.336C694.902 678.336 696.34 678.681 697.616 679.37C698.892 680.059 699.896 681.013 700.63 682.23C701.363 683.433 701.73 684.789 701.73 686.3C701.73 687.811 701.363 689.175 700.63 690.392C699.896 691.595 698.892 692.541 697.616 693.23C696.34 693.919 694.902 694.264 693.304 694.264ZM693.304 691.228C694.213 691.228 695.034 691.023 695.768 690.612C696.501 690.187 697.073 689.6 697.484 688.852C697.909 688.104 698.122 687.253 698.122 686.3C698.122 685.347 697.909 684.496 697.484 683.748C697.073 683 696.501 682.421 695.768 682.01C695.034 681.585 694.213 681.372 693.304 681.372C692.394 681.372 691.573 681.585 690.84 682.01C690.106 682.421 689.527 683 689.102 683.748C688.691 684.496 688.486 685.347 688.486 686.3C688.486 687.253 688.691 688.104 689.102 688.852C689.527 689.6 690.106 690.187 690.84 690.612C691.573 691.023 692.394 691.228 693.304 691.228ZM714.814 686.058H718.07V692.306C717.234 692.937 716.266 693.421 715.166 693.758C714.066 694.095 712.959 694.264 711.844 694.264C710.245 694.264 708.808 693.927 707.532 693.252C706.256 692.563 705.251 691.617 704.518 690.414C703.799 689.197 703.44 687.825 703.44 686.3C703.44 684.775 703.799 683.411 704.518 682.208C705.251 680.991 706.263 680.045 707.554 679.37C708.845 678.681 710.297 678.336 711.91 678.336C713.259 678.336 714.484 678.563 715.584 679.018C716.684 679.473 717.608 680.133 718.356 680.998L716.068 683.11C714.968 681.951 713.641 681.372 712.086 681.372C711.103 681.372 710.231 681.577 709.468 681.988C708.705 682.399 708.111 682.978 707.686 683.726C707.261 684.474 707.048 685.332 707.048 686.3C707.048 687.253 707.261 688.104 707.686 688.852C708.111 689.6 708.698 690.187 709.446 690.612C710.209 691.023 711.074 691.228 712.042 691.228C713.069 691.228 713.993 691.008 714.814 690.568V686.058ZM728.839 694.264C727.24 694.264 725.795 693.919 724.505 693.23C723.229 692.541 722.224 691.595 721.491 690.392C720.772 689.175 720.413 687.811 720.413 686.3C720.413 684.789 720.772 683.433 721.491 682.23C722.224 681.013 723.229 680.059 724.505 679.37C725.795 678.681 727.24 678.336 728.839 678.336C730.437 678.336 731.875 678.681 733.151 679.37C734.427 680.059 735.431 681.013 736.165 682.23C736.898 683.433 737.265 684.789 737.265 686.3C737.265 687.811 736.898 689.175 736.165 690.392C735.431 691.595 734.427 692.541 733.151 693.23C731.875 693.919 730.437 694.264 728.839 694.264ZM728.839 691.228C729.748 691.228 730.569 691.023 731.303 690.612C732.036 690.187 732.608 689.6 733.019 688.852C733.444 688.104 733.657 687.253 733.657 686.3C733.657 685.347 733.444 684.496 733.019 683.748C732.608 683 732.036 682.421 731.303 682.01C730.569 681.585 729.748 681.372 728.839 681.372C727.929 681.372 727.108 681.585 726.375 682.01C725.641 682.421 725.062 683 724.637 683.748C724.226 684.496 724.021 685.347 724.021 686.3C724.021 687.253 724.226 688.104 724.637 688.852C725.062 689.6 725.641 690.187 726.375 690.612C727.108 691.023 727.929 691.228 728.839 691.228ZM746.785 694.264C744.585 694.264 742.869 693.655 741.637 692.438C740.42 691.221 739.811 689.483 739.811 687.224V678.6H743.375V687.092C743.375 689.849 744.519 691.228 746.807 691.228C747.922 691.228 748.773 690.898 749.359 690.238C749.946 689.563 750.239 688.515 750.239 687.092V678.6H753.759V687.224C753.759 689.483 753.143 691.221 751.911 692.438C750.694 693.655 748.985 694.264 746.785 694.264ZM760.213 681.504H755.285V678.6H768.705V681.504H763.777V694H760.213V681.504Z" fill="#25B5E3"/>
<rect x="587" y="561" width="262" height="32" rx="5" fill="#35CAEC"/>
<path d="M668.976 502.16C668.112 502.16 667.275 502.037 666.464 501.792C665.664 501.547 665.029 501.221 664.56 500.816L665.28 499.2C665.739 499.563 666.299 499.861 666.96 500.096C667.632 500.32 668.304 500.432 668.976 500.432C669.808 500.432 670.427 500.299 670.832 500.032C671.248 499.765 671.456 499.413 671.456 498.976C671.456 498.656 671.339 498.395 671.104 498.192C670.88 497.979 670.592 497.813 670.24 497.696C669.888 497.579 669.408 497.445 668.8 497.296C667.947 497.093 667.253 496.891 666.72 496.688C666.197 496.485 665.744 496.171 665.36 495.744C664.987 495.307 664.8 494.72 664.8 493.984C664.8 493.365 664.965 492.805 665.296 492.304C665.637 491.792 666.144 491.387 666.816 491.088C667.499 490.789 668.331 490.64 669.312 490.64C669.995 490.64 670.667 490.725 671.328 490.896C671.989 491.067 672.56 491.312 673.04 491.632L672.384 493.248C671.893 492.96 671.381 492.741 670.848 492.592C670.315 492.443 669.797 492.368 669.296 492.368C668.475 492.368 667.861 492.507 667.456 492.784C667.061 493.061 666.864 493.429 666.864 493.888C666.864 494.208 666.976 494.469 667.2 494.672C667.435 494.875 667.728 495.035 668.08 495.152C668.432 495.269 668.912 495.403 669.52 495.552C670.352 495.744 671.035 495.947 671.568 496.16C672.101 496.363 672.555 496.677 672.928 497.104C673.312 497.531 673.504 498.107 673.504 498.832C673.504 499.451 673.333 500.011 672.992 500.512C672.661 501.013 672.155 501.413 671.472 501.712C670.789 502.011 669.957 502.16 668.976 502.16ZM683.647 493.456V502H681.743V500.912C681.423 501.296 681.023 501.595 680.543 501.808C680.063 502.011 679.545 502.112 678.991 502.112C677.849 502.112 676.948 501.797 676.287 501.168C675.636 500.528 675.311 499.584 675.311 498.336V493.456H677.311V498.064C677.311 498.832 677.481 499.408 677.823 499.792C678.175 500.165 678.671 500.352 679.311 500.352C680.025 500.352 680.591 500.133 681.007 499.696C681.433 499.248 681.647 498.608 681.647 497.776V493.456H683.647ZM697.049 493.36C698.126 493.36 698.98 493.675 699.609 494.304C700.238 494.923 700.553 495.856 700.553 497.104V502H698.553V497.36C698.553 496.613 698.388 496.053 698.057 495.68C697.726 495.296 697.252 495.104 696.633 495.104C695.961 495.104 695.422 495.328 695.017 495.776C694.612 496.213 694.409 496.843 694.409 497.664V502H692.409V497.36C692.409 496.613 692.244 496.053 691.913 495.68C691.582 495.296 691.108 495.104 690.489 495.104C689.806 495.104 689.262 495.323 688.857 495.76C688.462 496.197 688.265 496.832 688.265 497.664V502H686.265V493.456H688.169V494.544C688.489 494.16 688.889 493.867 689.369 493.664C689.849 493.461 690.382 493.36 690.969 493.36C691.609 493.36 692.174 493.483 692.665 493.728C693.166 493.963 693.561 494.315 693.849 494.784C694.201 494.336 694.654 493.989 695.209 493.744C695.764 493.488 696.377 493.36 697.049 493.36ZM703.109 493.456H705.109V502H703.109V493.456ZM704.117 492.048C703.754 492.048 703.45 491.936 703.205 491.712C702.96 491.477 702.837 491.189 702.837 490.848C702.837 490.507 702.96 490.224 703.205 490C703.45 489.765 703.754 489.648 704.117 489.648C704.48 489.648 704.784 489.76 705.029 489.984C705.274 490.197 705.397 490.469 705.397 490.8C705.397 491.152 705.274 491.451 705.029 491.696C704.794 491.931 704.49 492.048 704.117 492.048ZM712.87 501.536C712.635 501.728 712.347 501.872 712.006 501.968C711.675 502.064 711.323 502.112 710.95 502.112C710.011 502.112 709.286 501.867 708.774 501.376C708.262 500.885 708.006 500.171 708.006 499.232V495.12H706.598V493.52H708.006V491.568H710.006V493.52H712.294V495.12H710.006V499.184C710.006 499.6 710.107 499.92 710.31 500.144C710.513 500.357 710.806 500.464 711.19 500.464C711.638 500.464 712.011 500.347 712.31 500.112L712.87 501.536ZM726.457 502L724.169 498.72C724.073 498.731 723.929 498.736 723.737 498.736H721.209V502H719.129V490.8H723.737C724.708 490.8 725.55 490.96 726.265 491.28C726.99 491.6 727.545 492.059 727.929 492.656C728.313 493.253 728.505 493.963 728.505 494.784C728.505 495.627 728.297 496.352 727.881 496.96C727.476 497.568 726.889 498.021 726.121 498.32L728.697 502H726.457ZM726.409 494.784C726.409 494.069 726.174 493.52 725.705 493.136C725.236 492.752 724.548 492.56 723.641 492.56H721.209V497.024H723.641C724.548 497.024 725.236 496.832 725.705 496.448C726.174 496.053 726.409 495.499 726.409 494.784ZM734.48 502.112C733.616 502.112 732.837 501.925 732.144 501.552C731.451 501.179 730.907 500.661 730.512 500C730.128 499.328 729.936 498.571 729.936 497.728C729.936 496.885 730.128 496.133 730.512 495.472C730.907 494.811 731.451 494.293 732.144 493.92C732.837 493.547 733.616 493.36 734.48 493.36C735.355 493.36 736.139 493.547 736.832 493.92C737.525 494.293 738.064 494.811 738.448 495.472C738.843 496.133 739.04 496.885 739.04 497.728C739.04 498.571 738.843 499.328 738.448 500C738.064 500.661 737.525 501.179 736.832 501.552C736.139 501.925 735.355 502.112 734.48 502.112ZM734.48 500.4C735.216 500.4 735.824 500.155 736.304 499.664C736.784 499.173 737.024 498.528 737.024 497.728C737.024 496.928 736.784 496.283 736.304 495.792C735.824 495.301 735.216 495.056 734.48 495.056C733.744 495.056 733.136 495.301 732.656 495.792C732.187 496.283 731.952 496.928 731.952 497.728C731.952 498.528 732.187 499.173 732.656 499.664C733.136 500.155 733.744 500.4 734.48 500.4ZM745.801 493.36C746.878 493.36 747.742 493.675 748.393 494.304C749.043 494.933 749.369 495.867 749.369 497.104V502H747.369V497.36C747.369 496.613 747.193 496.053 746.841 495.68C746.489 495.296 745.987 495.104 745.337 495.104C744.601 495.104 744.019 495.328 743.593 495.776C743.166 496.213 742.953 496.848 742.953 497.68V502H740.953V490.128H742.953V494.448C743.283 494.096 743.689 493.829 744.169 493.648C744.659 493.456 745.203 493.36 745.801 493.36ZM751.906 493.456H753.906V502H751.906V493.456ZM752.914 492.048C752.551 492.048 752.247 491.936 752.002 491.712C751.756 491.477 751.634 491.189 751.634 490.848C751.634 490.507 751.756 490.224 752.002 490C752.247 489.765 752.551 489.648 752.914 489.648C753.276 489.648 753.58 489.76 753.826 489.984C754.071 490.197 754.194 490.469 754.194 490.8C754.194 491.152 754.071 491.451 753.826 491.696C753.591 491.931 753.287 492.048 752.914 492.048ZM756.531 490.128H758.531V502H756.531V490.128ZM761.156 490.128H763.156V502H761.156V490.128ZM769.045 493.36C770.303 493.36 771.263 493.664 771.925 494.272C772.597 494.869 772.933 495.776 772.933 496.992V502H771.045V500.96C770.799 501.333 770.447 501.621 769.989 501.824C769.541 502.016 768.997 502.112 768.357 502.112C767.717 502.112 767.157 502.005 766.677 501.792C766.197 501.568 765.823 501.264 765.557 500.88C765.301 500.485 765.173 500.043 765.173 499.552C765.173 498.784 765.455 498.171 766.021 497.712C766.597 497.243 767.498 497.008 768.725 497.008H770.933V496.88C770.933 496.283 770.751 495.824 770.389 495.504C770.037 495.184 769.509 495.024 768.805 495.024C768.325 495.024 767.85 495.099 767.381 495.248C766.922 495.397 766.533 495.605 766.213 495.872L765.429 494.416C765.877 494.075 766.415 493.813 767.045 493.632C767.674 493.451 768.341 493.36 769.045 493.36ZM768.773 500.656C769.274 500.656 769.717 500.544 770.101 500.32C770.495 500.085 770.773 499.755 770.933 499.328V498.336H768.869C767.717 498.336 767.141 498.715 767.141 499.472C767.141 499.835 767.285 500.123 767.573 500.336C767.861 500.549 768.261 500.656 768.773 500.656Z" fill="white"/>
<path d="M593.952 583.112C593.237 583.112 592.549 583.021 591.888 582.84C591.237 582.648 590.72 582.419 590.336 582.152L591.104 580.632C591.488 580.877 591.947 581.08 592.48 581.24C593.013 581.4 593.547 581.48 594.08 581.48C594.709 581.48 595.163 581.395 595.44 581.224C595.728 581.053 595.872 580.824 595.872 580.536C595.872 580.301 595.776 580.125 595.584 580.008C595.392 579.88 595.141 579.784 594.832 579.72C594.523 579.656 594.176 579.597 593.792 579.544C593.419 579.491 593.04 579.421 592.656 579.336C592.283 579.24 591.941 579.107 591.632 578.936C591.323 578.755 591.072 578.515 590.88 578.216C590.688 577.917 590.592 577.523 590.592 577.032C590.592 576.488 590.747 576.019 591.056 575.624C591.365 575.219 591.797 574.909 592.352 574.696C592.917 574.472 593.584 574.36 594.352 574.36C594.928 574.36 595.509 574.424 596.096 574.552C596.683 574.68 597.168 574.861 597.552 575.096L596.784 576.616C596.379 576.371 595.968 576.205 595.552 576.12C595.147 576.024 594.741 575.976 594.336 575.976C593.728 575.976 593.275 576.067 592.976 576.248C592.688 576.429 592.544 576.659 592.544 576.936C592.544 577.192 592.64 577.384 592.832 577.512C593.024 577.64 593.275 577.741 593.584 577.816C593.893 577.891 594.235 577.955 594.608 578.008C594.992 578.051 595.371 578.12 595.744 578.216C596.117 578.312 596.459 578.445 596.768 578.616C597.088 578.776 597.344 579.005 597.536 579.304C597.728 579.603 597.824 579.992 597.824 580.472C597.824 581.005 597.664 581.469 597.344 581.864C597.035 582.259 596.592 582.568 596.016 582.792C595.44 583.005 594.752 583.112 593.952 583.112ZM603.162 583.112C602.437 583.112 601.797 582.979 601.242 582.712C600.688 582.435 600.256 582.019 599.946 581.464C599.637 580.899 599.482 580.189 599.482 579.336V574.456H601.482V579.064C601.482 579.832 601.653 580.408 601.994 580.792C602.346 581.165 602.842 581.352 603.482 581.352C603.952 581.352 604.357 581.256 604.698 581.064C605.05 580.872 605.322 580.584 605.514 580.2C605.717 579.816 605.818 579.341 605.818 578.776V574.456H607.818V583H605.914V580.696L606.25 581.4C605.962 581.955 605.541 582.381 604.986 582.68C604.432 582.968 603.824 583.112 603.162 583.112ZM621.221 574.36C621.904 574.36 622.506 574.493 623.029 574.76C623.562 575.027 623.978 575.437 624.277 575.992C624.576 576.536 624.725 577.24 624.725 578.104V583H622.725V578.36C622.725 577.603 622.56 577.037 622.229 576.664C621.898 576.291 621.424 576.104 620.805 576.104C620.368 576.104 619.978 576.2 619.637 576.392C619.306 576.584 619.045 576.867 618.853 577.24C618.672 577.613 618.581 578.088 618.581 578.664V583H616.581V578.36C616.581 577.603 616.416 577.037 616.085 576.664C615.754 576.291 615.28 576.104 614.661 576.104C614.224 576.104 613.834 576.2 613.493 576.392C613.162 576.584 612.901 576.867 612.709 577.24C612.528 577.613 612.437 578.088 612.437 578.664V583H610.437V574.456H612.341V576.728L612.005 576.056C612.293 575.501 612.709 575.08 613.253 574.792C613.808 574.504 614.437 574.36 615.141 574.36C615.941 574.36 616.634 574.557 617.221 574.952C617.818 575.347 618.213 575.944 618.405 576.744L617.621 576.472C617.898 575.832 618.357 575.32 618.997 574.936C619.637 574.552 620.378 574.36 621.221 574.36ZM627.281 583V574.456H629.281V583H627.281ZM628.289 573.048C627.915 573.048 627.606 572.931 627.361 572.696C627.126 572.461 627.009 572.179 627.009 571.848C627.009 571.507 627.126 571.224 627.361 571C627.606 570.765 627.915 570.648 628.289 570.648C628.662 570.648 628.966 570.76 629.201 570.984C629.446 571.197 629.569 571.469 629.569 571.8C629.569 572.152 629.451 572.451 629.217 572.696C628.982 572.931 628.673 573.048 628.289 573.048ZM635.122 583.112C634.183 583.112 633.458 582.872 632.946 582.392C632.434 581.901 632.178 581.181 632.178 580.232V572.568H634.178V580.184C634.178 580.589 634.279 580.904 634.482 581.128C634.695 581.352 634.988 581.464 635.362 581.464C635.81 581.464 636.183 581.347 636.482 581.112L637.042 582.536C636.807 582.728 636.519 582.872 636.178 582.968C635.836 583.064 635.484 583.112 635.122 583.112ZM630.77 576.12V574.52H636.466V576.12H630.77ZM638.687 583V574.456H640.591V576.808L640.367 576.12C640.623 575.544 641.023 575.107 641.567 574.808C642.122 574.509 642.81 574.36 643.631 574.36V576.264C643.546 576.243 643.466 576.232 643.391 576.232C643.316 576.221 643.242 576.216 643.167 576.216C642.41 576.216 641.807 576.44 641.359 576.888C640.911 577.325 640.687 577.981 640.687 578.856V583H638.687ZM649.09 583.112C648.215 583.112 647.436 582.925 646.754 582.552C646.071 582.168 645.532 581.645 645.138 580.984C644.743 580.323 644.546 579.571 644.546 578.728C644.546 577.875 644.743 577.123 645.138 576.472C645.532 575.811 646.071 575.293 646.754 574.92C647.436 574.547 648.215 574.36 649.09 574.36C649.975 574.36 650.759 574.547 651.442 574.92C652.135 575.293 652.674 575.805 653.058 576.456C653.452 577.107 653.65 577.864 653.65 578.728C653.65 579.571 653.452 580.323 653.058 580.984C652.674 581.645 652.135 582.168 651.442 582.552C650.759 582.925 649.975 583.112 649.09 583.112ZM649.09 581.4C649.58 581.4 650.018 581.293 650.402 581.08C650.786 580.867 651.084 580.557 651.298 580.152C651.522 579.747 651.634 579.272 651.634 578.728C651.634 578.173 651.522 577.699 651.298 577.304C651.084 576.899 650.786 576.589 650.402 576.376C650.018 576.163 649.586 576.056 649.106 576.056C648.615 576.056 648.178 576.163 647.794 576.376C647.42 576.589 647.122 576.899 646.898 577.304C646.674 577.699 646.562 578.173 646.562 578.728C646.562 579.272 646.674 579.747 646.898 580.152C647.122 580.557 647.42 580.867 647.794 581.08C648.178 581.293 648.61 581.4 649.09 581.4ZM660.41 574.36C661.093 574.36 661.701 574.493 662.234 574.76C662.778 575.027 663.205 575.437 663.514 575.992C663.823 576.536 663.978 577.24 663.978 578.104V583H661.978V578.36C661.978 577.603 661.797 577.037 661.434 576.664C661.082 576.291 660.586 576.104 659.946 576.104C659.477 576.104 659.061 576.2 658.698 576.392C658.335 576.584 658.053 576.872 657.85 577.256C657.658 577.629 657.562 578.104 657.562 578.68V583H655.562V571.128H657.562V576.76L657.13 576.056C657.429 575.512 657.861 575.096 658.426 574.808C659.002 574.509 659.663 574.36 660.41 574.36ZM666.515 583V574.456H668.515V583H666.515ZM667.523 573.048C667.15 573.048 666.84 572.931 666.595 572.696C666.36 572.461 666.243 572.179 666.243 571.848C666.243 571.507 666.36 571.224 666.595 571C666.84 570.765 667.15 570.648 667.523 570.648C667.896 570.648 668.2 570.76 668.435 570.984C668.68 571.197 668.803 571.469 668.803 571.8C668.803 572.152 668.686 572.451 668.451 572.696C668.216 572.931 667.907 573.048 667.523 573.048ZM671.14 583V571.128H673.14V583H671.14ZM675.765 583V571.128H677.765V583H675.765ZM685.654 583V581.272L685.542 580.904V577.88C685.542 577.293 685.366 576.84 685.014 576.52C684.662 576.189 684.129 576.024 683.414 576.024C682.934 576.024 682.459 576.099 681.99 576.248C681.531 576.397 681.142 576.605 680.822 576.872L680.038 575.416C680.497 575.064 681.041 574.803 681.67 574.632C682.31 574.451 682.971 574.36 683.654 574.36C684.891 574.36 685.846 574.659 686.518 575.256C687.201 575.843 687.542 576.755 687.542 577.992V583H685.654ZM682.966 583.112C682.326 583.112 681.766 583.005 681.286 582.792C680.806 582.568 680.433 582.264 680.166 581.88C679.91 581.485 679.782 581.043 679.782 580.552C679.782 580.072 679.894 579.64 680.118 579.256C680.353 578.872 680.731 578.568 681.254 578.344C681.777 578.12 682.47 578.008 683.334 578.008H685.814V579.336H683.478C682.795 579.336 682.337 579.448 682.102 579.672C681.867 579.885 681.75 580.152 681.75 580.472C681.75 580.835 681.894 581.123 682.182 581.336C682.47 581.549 682.87 581.656 683.382 581.656C683.873 581.656 684.31 581.544 684.694 581.32C685.089 581.096 685.371 580.765 685.542 580.328L685.878 581.528C685.686 582.029 685.339 582.419 684.838 582.696C684.347 582.973 683.723 583.112 682.966 583.112ZM694.173 583.16C693.288 583.16 692.488 582.936 691.773 582.488C691.069 582.04 690.514 581.389 690.109 580.536C689.704 579.672 689.501 578.627 689.501 577.4C689.501 576.173 689.704 575.133 690.109 574.28C690.514 573.416 691.069 572.76 691.773 572.312C692.488 571.864 693.288 571.64 694.173 571.64C695.069 571.64 695.869 571.864 696.573 572.312C697.277 572.76 697.832 573.416 698.237 574.28C698.653 575.133 698.861 576.173 698.861 577.4C698.861 578.627 698.653 579.672 698.237 580.536C697.832 581.389 697.277 582.04 696.573 582.488C695.869 582.936 695.069 583.16 694.173 583.16ZM694.173 581.352C694.696 581.352 695.149 581.213 695.533 580.936C695.917 580.648 696.216 580.211 696.429 579.624C696.653 579.037 696.765 578.296 696.765 577.4C696.765 576.493 696.653 575.752 696.429 575.176C696.216 574.589 695.917 574.157 695.533 573.88C695.149 573.592 694.696 573.448 694.173 573.448C693.672 573.448 693.224 573.592 692.829 573.88C692.445 574.157 692.141 574.589 691.917 575.176C691.704 575.752 691.597 576.493 691.597 577.4C691.597 578.296 691.704 579.037 691.917 579.624C692.141 580.211 692.445 580.648 692.829 580.936C693.224 581.213 693.672 581.352 694.173 581.352ZM703.979 583.16C703.189 583.16 702.416 583.048 701.659 582.824C700.912 582.589 700.283 582.269 699.771 581.864L700.651 580.248C701.056 580.579 701.547 580.845 702.123 581.048C702.709 581.251 703.317 581.352 703.947 581.352C704.683 581.352 705.259 581.197 705.675 580.888C706.101 580.579 706.315 580.163 706.315 579.64C706.315 579.288 706.224 578.979 706.043 578.712C705.872 578.445 705.563 578.243 705.115 578.104C704.677 577.965 704.075 577.896 703.307 577.896H700.603L701.179 571.8H707.755V573.544H701.947L703.035 572.552L702.603 577.112L701.515 576.136H703.771C704.88 576.136 705.771 576.285 706.443 576.584C707.125 576.872 707.621 577.277 707.931 577.8C708.251 578.312 708.411 578.899 708.411 579.56C708.411 580.211 708.251 580.808 707.931 581.352C707.611 581.896 707.12 582.333 706.459 582.664C705.808 582.995 704.981 583.16 703.979 583.16ZM711.279 583L715.903 572.632L716.447 573.56H710.095L711.087 572.552V575.464H709.151V571.8H717.855V573.192L713.503 583H711.279ZM722.536 583.16C721.747 583.16 720.974 583.048 720.217 582.824C719.47 582.589 718.841 582.269 718.329 581.864L719.225 580.248C719.63 580.579 720.121 580.845 720.697 581.048C721.273 581.251 721.875 581.352 722.505 581.352C723.251 581.352 723.833 581.203 724.249 580.904C724.665 580.595 724.873 580.179 724.873 579.656C724.873 579.144 724.681 578.739 724.297 578.44C723.913 578.141 723.294 577.992 722.441 577.992H721.417V576.568L724.617 572.76L724.889 573.544H718.873V571.8H726.505V573.192L723.305 577L722.217 576.36H722.841C724.217 576.36 725.246 576.669 725.929 577.288C726.622 577.896 726.969 578.68 726.969 579.64C726.969 580.269 726.809 580.851 726.489 581.384C726.169 581.917 725.678 582.349 725.017 582.68C724.366 583 723.539 583.16 722.536 583.16ZM735.913 586.264C734.782 586.264 733.753 586.083 732.825 585.72C731.897 585.357 731.097 584.845 730.425 584.184C729.753 583.523 729.236 582.749 728.873 581.864C728.51 580.968 728.329 579.992 728.329 578.936C728.329 577.88 728.51 576.909 728.873 576.024C729.236 575.139 729.753 574.371 730.425 573.72C731.108 573.069 731.918 572.563 732.857 572.2C733.796 571.837 734.836 571.656 735.977 571.656C737.076 571.656 738.084 571.832 739.001 572.184C739.918 572.525 740.708 573.011 741.369 573.64C742.041 574.259 742.558 574.995 742.921 575.848C743.294 576.701 743.481 577.64 743.481 578.664C743.481 579.581 743.358 580.376 743.113 581.048C742.868 581.709 742.516 582.216 742.057 582.568C741.609 582.92 741.06 583.096 740.409 583.096C739.748 583.096 739.22 582.899 738.825 582.504C738.441 582.109 738.249 581.539 738.249 580.792V579.88L738.313 578.968L738.169 576.888V575.064H739.945V580.504C739.945 580.909 740.025 581.197 740.185 581.368C740.356 581.528 740.553 581.608 740.777 581.608C741.065 581.608 741.31 581.496 741.513 581.272C741.716 581.048 741.865 580.717 741.961 580.28C742.068 579.843 742.121 579.315 742.121 578.696C742.121 577.843 741.972 577.064 741.673 576.36C741.385 575.656 740.964 575.053 740.409 574.552C739.865 574.04 739.214 573.651 738.457 573.384C737.71 573.107 736.884 572.968 735.977 572.968C735.049 572.968 734.206 573.117 733.449 573.416C732.692 573.704 732.041 574.115 731.497 574.648C730.953 575.181 730.532 575.816 730.233 576.552C729.945 577.277 729.801 578.072 729.801 578.936C729.801 579.821 729.945 580.632 730.233 581.368C730.521 582.104 730.932 582.733 731.465 583.256C732.009 583.789 732.654 584.2 733.401 584.488C734.148 584.787 734.985 584.936 735.913 584.936C736.404 584.936 736.921 584.877 737.465 584.76C738.009 584.653 738.526 584.477 739.017 584.232L739.449 585.512C738.958 585.757 738.393 585.944 737.753 586.072C737.113 586.2 736.5 586.264 735.913 586.264ZM735.497 583.096C734.761 583.096 734.105 582.925 733.529 582.584C732.953 582.232 732.494 581.752 732.153 581.144C731.822 580.525 731.657 579.816 731.657 579.016C731.657 578.227 731.822 577.528 732.153 576.92C732.484 576.301 732.937 575.821 733.513 575.48C734.1 575.139 734.761 574.968 735.497 574.968C736.212 574.968 736.836 575.128 737.369 575.448C737.902 575.757 738.318 576.211 738.617 576.808C738.916 577.405 739.065 578.141 739.065 579.016C739.065 579.891 738.921 580.632 738.633 581.24C738.345 581.848 737.934 582.312 737.401 582.632C736.868 582.941 736.233 583.096 735.497 583.096ZM735.833 581.544C736.292 581.544 736.697 581.448 737.049 581.256C737.401 581.053 737.678 580.76 737.881 580.376C738.094 579.992 738.201 579.539 738.201 579.016C738.201 578.483 738.094 578.035 737.881 577.672C737.678 577.299 737.401 577.016 737.049 576.824C736.697 576.621 736.292 576.52 735.833 576.52C735.364 576.52 734.948 576.621 734.585 576.824C734.233 577.027 733.956 577.315 733.753 577.688C733.561 578.061 733.465 578.504 733.465 579.016C733.465 579.539 733.561 579.987 733.753 580.36C733.956 580.733 734.233 581.027 734.585 581.24C734.948 581.443 735.364 581.544 735.833 581.544ZM749.356 586.216C748.567 586.216 747.793 586.109 747.036 585.896C746.289 585.693 745.676 585.395 745.196 585L746.092 583.496C746.465 583.805 746.935 584.051 747.5 584.232C748.076 584.424 748.657 584.52 749.244 584.52C750.183 584.52 750.871 584.301 751.308 583.864C751.745 583.437 751.964 582.792 751.964 581.928V580.408L752.124 578.472L752.06 576.536V574.456H753.964V581.704C753.964 583.251 753.569 584.387 752.78 585.112C751.991 585.848 750.849 586.216 749.356 586.216ZM749.1 582.616C748.289 582.616 747.553 582.445 746.892 582.104C746.241 581.752 745.724 581.267 745.34 580.648C744.967 580.029 744.78 579.304 744.78 578.472C744.78 577.651 744.967 576.931 745.34 576.312C745.724 575.693 746.241 575.213 746.892 574.872C747.553 574.531 748.289 574.36 749.1 574.36C749.825 574.36 750.476 574.504 751.052 574.792C751.628 575.08 752.087 575.528 752.428 576.136C752.78 576.744 752.956 577.523 752.956 578.472C752.956 579.421 752.78 580.205 752.428 580.824C752.087 581.432 751.628 581.885 751.052 582.184C750.476 582.472 749.825 582.616 749.1 582.616ZM749.404 580.92C749.905 580.92 750.353 580.819 750.748 580.616C751.143 580.403 751.447 580.115 751.66 579.752C751.884 579.379 751.996 578.952 751.996 578.472C751.996 577.992 751.884 577.571 751.66 577.208C751.447 576.835 751.143 576.552 750.748 576.36C750.353 576.157 749.905 576.056 749.404 576.056C748.903 576.056 748.449 576.157 748.044 576.36C747.649 576.552 747.34 576.835 747.116 577.208C746.903 577.571 746.796 577.992 746.796 578.472C746.796 578.952 746.903 579.379 747.116 579.752C747.34 580.115 747.649 580.403 748.044 580.616C748.449 580.819 748.903 580.92 749.404 580.92ZM767.377 574.36C768.06 574.36 768.663 574.493 769.185 574.76C769.719 575.027 770.135 575.437 770.433 575.992C770.732 576.536 770.881 577.24 770.881 578.104V583H768.881V578.36C768.881 577.603 768.716 577.037 768.385 576.664C768.055 576.291 767.58 576.104 766.961 576.104C766.524 576.104 766.135 576.2 765.793 576.392C765.463 576.584 765.201 576.867 765.009 577.24C764.828 577.613 764.737 578.088 764.737 578.664V583H762.737V578.36C762.737 577.603 762.572 577.037 762.241 576.664C761.911 576.291 761.436 576.104 760.817 576.104C760.38 576.104 759.991 576.2 759.649 576.392C759.319 576.584 759.057 576.867 758.865 577.24C758.684 577.613 758.593 578.088 758.593 578.664V583H756.593V574.456H758.497V576.728L758.161 576.056C758.449 575.501 758.865 575.08 759.409 574.792C759.964 574.504 760.593 574.36 761.297 574.36C762.097 574.36 762.791 574.557 763.377 574.952C763.975 575.347 764.369 575.944 764.561 576.744L763.777 576.472C764.055 575.832 764.513 575.32 765.153 574.936C765.793 574.552 766.535 574.36 767.377 574.36ZM778.701 583V581.272L778.589 580.904V577.88C778.589 577.293 778.413 576.84 778.061 576.52C777.709 576.189 777.176 576.024 776.461 576.024C775.981 576.024 775.506 576.099 775.037 576.248C774.578 576.397 774.189 576.605 773.869 576.872L773.085 575.416C773.544 575.064 774.088 574.803 774.717 574.632C775.357 574.451 776.018 574.36 776.701 574.36C777.938 574.36 778.893 574.659 779.565 575.256C780.248 575.843 780.589 576.755 780.589 577.992V583H778.701ZM776.013 583.112C775.373 583.112 774.813 583.005 774.333 582.792C773.853 582.568 773.48 582.264 773.213 581.88C772.957 581.485 772.829 581.043 772.829 580.552C772.829 580.072 772.941 579.64 773.165 579.256C773.4 578.872 773.778 578.568 774.301 578.344C774.824 578.12 775.517 578.008 776.381 578.008H778.861V579.336H776.525C775.842 579.336 775.384 579.448 775.149 579.672C774.914 579.885 774.797 580.152 774.797 580.472C774.797 580.835 774.941 581.123 775.229 581.336C775.517 581.549 775.917 581.656 776.429 581.656C776.92 581.656 777.357 581.544 777.741 581.32C778.136 581.096 778.418 580.765 778.589 580.328L778.925 581.528C778.733 582.029 778.386 582.419 777.885 582.696C777.394 582.973 776.77 583.112 776.013 583.112ZM783.156 583V574.456H785.156V583H783.156ZM784.164 573.048C783.79 573.048 783.481 572.931 783.236 572.696C783.001 572.461 782.884 572.179 782.884 571.848C782.884 571.507 783.001 571.224 783.236 571C783.481 570.765 783.79 570.648 784.164 570.648C784.537 570.648 784.841 570.76 785.076 570.984C785.321 571.197 785.444 571.469 785.444 571.8C785.444 572.152 785.326 572.451 785.092 572.696C784.857 572.931 784.548 573.048 784.164 573.048ZM787.781 583V571.128H789.781V583H787.781ZM793.046 583.112C792.683 583.112 792.374 582.989 792.118 582.744C791.862 582.488 791.734 582.168 791.734 581.784C791.734 581.379 791.862 581.059 792.118 580.824C792.374 580.579 792.683 580.456 793.046 580.456C793.408 580.456 793.718 580.579 793.974 580.824C794.23 581.059 794.358 581.379 794.358 581.784C794.358 582.168 794.23 582.488 793.974 582.744C793.718 582.989 793.408 583.112 793.046 583.112ZM800.091 583.112C799.195 583.112 798.395 582.925 797.691 582.552C796.998 582.168 796.454 581.645 796.059 580.984C795.665 580.323 795.467 579.571 795.467 578.728C795.467 577.875 795.665 577.123 796.059 576.472C796.454 575.811 796.998 575.293 797.691 574.92C798.395 574.547 799.195 574.36 800.091 574.36C800.923 574.36 801.654 574.531 802.283 574.872C802.923 575.203 803.409 575.693 803.739 576.344L802.203 577.24C801.947 576.835 801.633 576.536 801.259 576.344C800.897 576.152 800.502 576.056 800.075 576.056C799.585 576.056 799.142 576.163 798.747 576.376C798.353 576.589 798.043 576.899 797.819 577.304C797.595 577.699 797.483 578.173 797.483 578.728C797.483 579.283 797.595 579.763 797.819 580.168C798.043 580.563 798.353 580.867 798.747 581.08C799.142 581.293 799.585 581.4 800.075 581.4C800.502 581.4 800.897 581.304 801.259 581.112C801.633 580.92 801.947 580.621 802.203 580.216L803.739 581.112C803.409 581.752 802.923 582.248 802.283 582.6C801.654 582.941 800.923 583.112 800.091 583.112ZM809.183 583.112C808.309 583.112 807.53 582.925 806.847 582.552C806.165 582.168 805.626 581.645 805.231 580.984C804.837 580.323 804.639 579.571 804.639 578.728C804.639 577.875 804.837 577.123 805.231 576.472C805.626 575.811 806.165 575.293 806.847 574.92C807.53 574.547 808.309 574.36 809.183 574.36C810.069 574.36 810.853 574.547 811.535 574.92C812.229 575.293 812.767 575.805 813.151 576.456C813.546 577.107 813.743 577.864 813.743 578.728C813.743 579.571 813.546 580.323 813.151 580.984C812.767 581.645 812.229 582.168 811.535 582.552C810.853 582.925 810.069 583.112 809.183 583.112ZM809.183 581.4C809.674 581.4 810.111 581.293 810.495 581.08C810.879 580.867 811.178 580.557 811.391 580.152C811.615 579.747 811.727 579.272 811.727 578.728C811.727 578.173 811.615 577.699 811.391 577.304C811.178 576.899 810.879 576.589 810.495 576.376C810.111 576.163 809.679 576.056 809.199 576.056C808.709 576.056 808.271 576.163 807.887 576.376C807.514 576.589 807.215 576.899 806.991 577.304C806.767 577.699 806.655 578.173 806.655 578.728C806.655 579.272 806.767 579.747 806.991 580.152C807.215 580.557 807.514 580.867 807.887 581.08C808.271 581.293 808.703 581.4 809.183 581.4ZM826.44 574.36C827.122 574.36 827.725 574.493 828.248 574.76C828.781 575.027 829.197 575.437 829.496 575.992C829.794 576.536 829.944 577.24 829.944 578.104V583H827.944V578.36C827.944 577.603 827.778 577.037 827.448 576.664C827.117 576.291 826.642 576.104 826.024 576.104C825.586 576.104 825.197 576.2 824.856 576.392C824.525 576.584 824.264 576.867 824.072 577.24C823.89 577.613 823.8 578.088 823.8 578.664V583H821.8V578.36C821.8 577.603 821.634 577.037 821.304 576.664C820.973 576.291 820.498 576.104 819.88 576.104C819.442 576.104 819.053 576.2 818.712 576.392C818.381 576.584 818.12 576.867 817.928 577.24C817.746 577.613 817.656 578.088 817.656 578.664V583H815.656V574.456H817.56V576.728L817.224 576.056C817.512 575.501 817.928 575.08 818.472 574.792C819.026 574.504 819.656 574.36 820.36 574.36C821.16 574.36 821.853 574.557 822.44 574.952C823.037 575.347 823.432 575.944 823.624 576.744L822.84 576.472C823.117 575.832 823.576 575.32 824.216 574.936C824.856 574.552 825.597 574.36 826.44 574.36Z" fill="white"/>
<g clip-path="url(#clip0_0_1)">
<path d="M620.503 323.911L620.379 324.191L620.573 324.428C643.524 352.558 678.435 370.583 717.5 370.583C756.59 370.583 791.513 352.545 814.477 324.366L814.671 324.127L814.546 323.846C811.206 316.348 804.456 311.236 790.892 308.102L790.892 308.102C790.531 308.018 790.17 307.935 789.809 307.852C783.039 306.291 776.425 304.766 770.451 303.016C764.155 301.171 758.606 299.086 754.359 296.467C750.113 293.849 747.219 290.729 746.138 286.831C745.058 282.934 745.761 278.148 748.951 272.133L748.951 272.133C768.574 235.059 771.235 206.495 763.683 187.153C756.118 167.778 738.36 157.792 717.5 157.792C696.224 157.792 678.436 168.163 670.96 187.727C663.497 207.258 666.364 235.82 686.052 272.137L686.052 272.138C689.336 278.189 690.047 282.999 688.939 286.911C687.831 290.825 684.869 293.954 680.56 296.572C676.25 299.192 670.645 301.268 664.347 303.094C658.58 304.767 652.262 306.223 645.863 307.697C645.278 307.832 644.693 307.967 644.108 308.102L644.107 308.102C630.517 311.249 623.817 316.387 620.503 323.911ZM568.5 245.5C568.5 163.215 635.215 96.5 717.5 96.5C799.785 96.5 866.5 163.215 866.5 245.5C866.5 327.785 799.785 394.5 717.5 394.5C635.215 394.5 568.5 327.785 568.5 245.5Z" fill="#BBF1FF" stroke="#1BA7DD"/>
</g>
<defs>
<filter id="filter0_d_0_1" x="70" y="535" width="270" height="40" filterUnits="userSpaceOnUse" color-interpolation-filters="sRGB">
<feFlood flood-opacity="0" result="BackgroundImageFix"/>
<feColorMatrix in="SourceAlpha" type="matrix" values="0 0 0 0 0 0 0 0 0 0 0 0 0 0 0 0 0 0 127 0" result="hardAlpha"/>
<feOffset dy="4"/>
<feGaussianBlur stdDeviation="2"/>
<feColorMatrix type="matrix" values="0 0 0 0 0.686275 0 0 0 0 0.933333 0 0 0 0 1 0 0 0 1 0"/>
<feBlend mode="normal" in2="BackgroundImageFix" result="effect1_dropShadow_0_1"/>
<feBlend mode="normal" in="SourceGraphic" in2="effect1_dropShadow_0_1" result="shape"/>
</filter>
<filter id="filter1_d_0_1" x="70" y="600" width="270" height="40" filterUnits="userSpaceOnUse" color-interpolation-filters="sRGB">
<feFlood flood-opacity="0" result="BackgroundImageFix"/>
<feColorMatrix in="SourceAlpha" type="matrix" values="0 0 0 0 0 0 0 0 0 0 0 0 0 0 0 0 0 0 127 0" result="hardAlpha"/>
<feOffset dy="4"/>
<feGaussianBlur stdDeviation="2"/>
<feColorMatrix type="matrix" values="0 0 0 0 0.686275 0 0 0 0 0.933333 0 0 0 0 1 0 0 0 1 0"/>
<feBlend mode="normal" in2="BackgroundImageFix" result="effect1_dropShadow_0_1"/>
<feBlend mode="normal" in="SourceGraphic" in2="effect1_dropShadow_0_1" result="shape"/>
</filter>
<radialGradient id="paint0_radial_0_1" cx="0" cy="0" r="1" gradientUnits="userSpaceOnUse" gradientTransform="translate(209.133 247.867) scale(99.6538 99.6538)">
<stop stop-color="#AFEEFF"/>
<stop offset="0.193" stop-color="#BBF1FF"/>
<stop offset="0.703" stop-color="#D7F8FF"/>
<stop offset="1" stop-color="#E1FAFF"/>
</radialGradient>
<linearGradient id="paint1_linear_0_1" x1="207.5" y1="164.594" x2="207.5" y2="327.875" gradientUnits="userSpaceOnUse">
<stop stop-color="#40DAF2"/>
<stop offset="0.259" stop-color="#3BD3EF"/>
<stop offset="0.624" stop-color="#2EC1E8"/>
<stop offset="1" stop-color="#1BA7DD"/>
</linearGradient>
<clipPath id="clip0_0_1">
<rect width="299" height="299" fill="white" transform="translate(568 96)"/>
</clipPath>
</defs>
</svg>
